<?xml version="1.0" encoding="UTF-8"?>
<!DOCTYPE svg PUBLIC "-//W3C//DTD SVG 1.1//EN" "http://www.w3.org/Graphics/SVG/1.1/DTD/svg11.dtd">
<svg xmlns="http://www.w3.org/2000/svg" version="1.1" width="800px" height="250px" style="shape-rendering:geometricPrecision; text-rendering:geometricPrecision; image-rendering:optimizeQuality; fill-rule:evenodd; clip-rule:evenodd" xmlns:xlink="http://www.w3.org/1999/xlink">
<g><path style="opacity:0.901" fill="#87b2a9" d="M 533.5,24.5 C 543.833,24.5 554.167,24.5 564.5,24.5C 564.5,25.5 564.5,26.5 564.5,27.5C 562.473,27.3379 560.473,27.5045 558.5,28C 560.969,30.4411 562.802,33.2744 564,36.5C 564.333,80.5 564.667,124.5 565,168.5C 566.109,170.815 567.943,172.315 570.5,173C 573.482,173.498 576.482,173.665 579.5,173.5C 579.5,174.5 579.5,175.5 579.5,176.5C 569.167,176.5 558.833,176.5 548.5,176.5C 548.5,175.5 548.5,174.5 548.5,173.5C 550.527,173.662 552.527,173.495 554.5,173C 551.727,170.617 549.561,167.783 548,164.5C 525.283,180.287 502.783,179.787 480.5,163C 464.718,146.426 460.551,127.259 468,105.5C 483.523,76.9878 506.69,68.1545 537.5,79C 541.004,80.9177 544.337,83.0843 547.5,85.5C 548.666,68.5098 548.833,51.5098 548,34.5C 547.594,31.5056 546.094,29.339 543.5,28C 540.183,27.5017 536.85,27.335 533.5,27.5C 533.5,26.5 533.5,25.5 533.5,24.5 Z M 514.5,76.5 C 524.88,76.7719 533.046,81.1053 539,89.5C 551.867,112.657 551.533,135.657 538,158.5C 523.106,177.623 507.439,178.29 491,160.5C 482.047,143.686 480.047,126.019 485,107.5C 488.16,98.0181 493.327,89.8514 500.5,83C 504.892,79.9669 509.559,77.8002 514.5,76.5 Z"/></g>
<g><path style="opacity:0.836" fill="#87b2a9" d="M 737.5,32.5 C 742.511,32.3341 747.511,32.5007 752.5,33C 745.456,42.922 738.289,52.7553 731,62.5C 732.519,52.4178 734.685,42.4178 737.5,32.5 Z"/></g>
<g><path style="opacity:0.864" fill="#87b2a9" d="M 598.5,48.5 C 609.358,48.1856 613.191,53.1856 610,63.5C 603.115,69.408 597.448,68.408 593,60.5C 592.056,55.1456 593.889,51.1456 598.5,48.5 Z"/></g>
<g><path style="opacity:0.894" fill="#87b2a9" d="M 643.5,50.5 C 649.833,50.5 656.167,50.5 662.5,50.5C 663.076,60.5178 659.076,68.0178 650.5,73C 662.162,73.4999 673.829,73.6665 685.5,73.5C 685.5,74.5 685.5,75.5 685.5,76.5C 677.16,76.3336 668.827,76.5003 660.5,77C 662.969,79.4411 664.802,82.2744 666,85.5C 666.333,113.167 666.667,140.833 667,168.5C 668.227,170.726 670.061,172.226 672.5,173C 676.821,173.499 681.154,173.666 685.5,173.5C 685.5,174.5 685.5,175.5 685.5,176.5C 673.833,176.5 662.167,176.5 650.5,176.5C 650.5,175.5 650.5,174.5 650.5,173.5C 652.527,173.662 654.527,173.495 656.5,173C 653.894,171.062 652.061,168.562 651,165.5C 650.667,137.833 650.333,110.167 650,82.5C 646.731,77.0526 641.898,75.0526 635.5,76.5C 635.5,75.5 635.5,74.5 635.5,73.5C 645.605,72.9976 649.772,67.6642 648,57.5C 646.479,55.1101 644.979,52.7768 643.5,50.5 Z"/></g>
<g><path style="opacity:0.885" fill="#87b2a9" d="M 70.5,73.5 C 83.2318,73.2407 94.0651,77.574 103,86.5C 106.177,91.3614 108.177,96.6948 109,102.5C 109.333,124.5 109.667,146.5 110,168.5C 111.109,170.815 112.943,172.315 115.5,173C 118.482,173.498 121.482,173.665 124.5,173.5C 124.5,174.5 124.5,175.5 124.5,176.5C 114.167,176.5 103.833,176.5 93.5,176.5C 93.5,175.5 93.5,174.5 93.5,173.5C 95.5273,173.662 97.5273,173.495 99.5,173C 96.7272,170.617 94.5605,167.783 93,164.5C 87.3614,170.236 80.528,173.736 72.5,175C 56.7118,178.011 42.0451,175.011 28.5,166C 16.8349,154.656 14.3349,141.49 21,126.5C 26.4837,119.329 33.6503,114.496 42.5,112C 56.8652,108.127 71.1986,104.127 85.5,100C 94.4311,94.3932 94.7644,88.0598 86.5,81C 72.2142,74.5338 60.3808,77.7005 51,90.5C 48.3652,94.7758 46.0319,99.1091 44,103.5C 37.6234,101.061 31.4567,98.2274 25.5,95C 37.7036,81.8976 52.7036,74.7309 70.5,73.5 Z M 92.5,100.5 C 93.6619,117.995 93.8286,135.662 93,153.5C 81.0161,172.787 65.1828,176.953 45.5,166C 33.7459,155.486 30.9126,142.986 37,128.5C 40.2012,124.964 43.7012,121.797 47.5,119C 60.2158,113.872 73.2158,109.539 86.5,106C 89.2601,104.821 91.2601,102.988 92.5,100.5 Z"/></g>
<g><path style="opacity:0.909" fill="#87b2a9" d="M 128.5,73.5 C 138.833,73.5 149.167,73.5 159.5,73.5C 159.5,74.5 159.5,75.5 159.5,76.5C 157.473,76.3379 155.473,76.5045 153.5,77C 156.364,79.2293 158.364,82.0626 159.5,85.5C 181.06,71.0062 202.726,70.8395 224.5,85C 242.084,101.168 247.251,120.668 240,143.5C 228.181,168.326 208.681,178.826 181.5,175C 173.315,173.49 166.148,169.99 160,164.5C 159.667,180.833 159.333,197.167 159,213.5C 158.3,217.066 156.467,219.9 153.5,222C 155.473,222.495 157.473,222.662 159.5,222.5C 159.5,223.5 159.5,224.5 159.5,225.5C 149.167,225.5 138.833,225.5 128.5,225.5C 128.5,224.5 128.5,223.5 128.5,222.5C 131.85,222.665 135.183,222.498 138.5,222C 140.726,220.773 142.226,218.939 143,216.5C 143.667,171.833 143.667,127.167 143,82.5C 139.731,77.0526 134.898,75.0526 128.5,76.5C 128.5,75.5 128.5,74.5 128.5,73.5 Z M 191.5,76.5 C 202.692,76.3444 211.192,81.0111 217,90.5C 228.782,113.543 228.115,136.21 215,158.5C 200.747,177.194 185.413,178.194 169,161.5C 159.535,146.01 156.868,129.344 161,111.5C 163.807,100.378 169.307,90.8778 177.5,83C 181.892,79.9669 186.559,77.8002 191.5,76.5 Z"/></g>
<g><path style="opacity:0.892" fill="#87b2a9" d="M 252.5,73.5 C 262.833,73.5 273.167,73.5 283.5,73.5C 283.5,74.5 283.5,75.5 283.5,76.5C 281.143,76.3367 278.81,76.5034 276.5,77C 280.01,79.1692 282.177,82.3359 283,86.5C 283.333,92.1667 283.667,97.8333 284,103.5C 290.846,92.9894 299.346,84.156 309.5,77C 318.37,72.8746 327.37,72.5413 336.5,76C 339.393,76.9408 341.726,78.6074 343.5,81C 340.004,85.3289 336.337,89.4955 332.5,93.5C 320.322,82.6861 308.322,82.8527 296.5,94C 292.667,98.5 288.833,103 285,107.5C 283.522,129.409 283.022,151.409 283.5,173.5C 288.5,173.5 293.5,173.5 298.5,173.5C 298.5,174.5 298.5,175.5 298.5,176.5C 283.167,176.5 267.833,176.5 252.5,176.5C 252.5,175.5 252.5,174.5 252.5,173.5C 257.5,173.5 262.5,173.5 267.5,173.5C 267.667,143.498 267.5,113.498 267,83.5C 264.323,77.1035 259.489,74.7701 252.5,76.5C 252.5,75.5 252.5,74.5 252.5,73.5 Z"/></g>
<g><path style="opacity:0.909" fill="#87b2a9" d="M 585.5,73.5 C 595.833,73.5 606.167,73.5 616.5,73.5C 616.5,74.5 616.5,75.5 616.5,76.5C 614.143,76.3367 611.81,76.5034 609.5,77C 613.01,79.1692 615.177,82.3359 616,86.5C 616.5,115.498 616.667,144.498 616.5,173.5C 621.5,173.5 626.5,173.5 631.5,173.5C 631.5,174.5 631.5,175.5 631.5,176.5C 616.167,176.5 600.833,176.5 585.5,176.5C 585.5,175.5 585.5,174.5 585.5,173.5C 590.5,173.5 595.5,173.5 600.5,173.5C 600.667,143.498 600.5,113.498 600,83.5C 597.323,77.1035 592.489,74.7701 585.5,76.5C 585.5,75.5 585.5,74.5 585.5,73.5 Z"/></g>
<g><path style="opacity:0.891" fill="#87b2a9" d="M 392.5,74.5 C 422.387,72.1782 441.887,85.1782 451,113.5C 455.284,144.773 442.45,165.273 412.5,175C 379.994,178.995 359.494,165.161 351,133.5C 348.268,111.802 355.768,94.6354 373.5,82C 379.604,78.5833 385.937,76.0833 392.5,74.5 Z M 400.5,76.5 C 411.686,76.342 420.186,81.0087 426,90.5C 437.781,113.546 437.115,136.212 424,158.5C 409.656,177.205 394.323,178.205 378,161.5C 371.181,151.392 368.014,140.226 368.5,128C 367.856,110.295 373.856,95.2947 386.5,83C 390.892,79.9669 395.559,77.8002 400.5,76.5 Z"/></g>
<g><path style="opacity:0.854" fill="#87b2a9" d="M 735.5,74.5 C 754.828,71.5518 770.995,77.2185 784,91.5C 786.711,95.4682 788.544,99.8015 789.5,104.5C 764.5,104.5 739.5,104.5 714.5,104.5C 709.451,122.545 711.284,139.878 720,156.5C 732.794,174.241 748.294,177.074 766.5,165C 770.257,161.914 773.257,158.248 775.5,154C 779.167,153.333 782.833,153.333 786.5,154C 768.917,175.479 747.25,181.145 721.5,171C 695.586,154.928 687.752,132.428 698,103.5C 706.335,88.3181 718.835,78.6514 735.5,74.5 Z M 743.5,76.5 C 759.52,77.5141 769.52,85.8474 773.5,101.5C 754.488,101.833 735.488,101.5 716.5,100.5C 721.829,88.1607 730.829,80.1607 743.5,76.5 Z"/></g>
</svg>
